<svg viewBox="0 0 82 25" xmlns="http://www.w3.org/2000/svg">
	<g clip-path="url(#clip0_101_207)">
		<path d="M11.9046 14.6698C11.8781 14.3522 11.8481 14.0352 11.8124 13.7187C11.7955 13.5706 11.7782 13.4231 11.7592 13.275C11.7509 13.2177 11.7428 13.1604 11.7343 13.1029C11.6539 12.565 11.5598 12.0286 11.4354 11.4992C11.3997 11.3468 11.3609 11.1948 11.3201 11.043C11.3149 11.0597 11.3086 11.0758 11.3034 11.0928C11.0613 11.8473 10.8709 12.6185 10.7054 13.394C10.3285 15.1571 10.1028 16.9466 9.74882 18.714C9.56976 19.6095 9.38593 20.5287 9.04704 21.3803C8.74147 22.1488 8.36148 22.9017 7.51364 23.1749C5.89539 23.6963 5.13419 21.7443 4.76664 20.5809C4.33534 19.2164 4.04132 17.8099 3.70021 16.4209C3.63534 16.1563 3.56903 15.8919 3.50094 15.6278C3.1205 17.4632 2.9239 19.3563 2.21235 21.0918C2.20702 21.1049 2.20113 21.1187 2.1958 21.1317L8.43868 24.749C9.08703 25.1246 9.96985 25.2856 10.8206 25.2336C10.8468 25.182 10.8731 25.1309 10.8976 25.0786C10.9192 25.0326 10.9402 24.9869 10.9609 24.9407C11.0523 24.7108 11.137 24.4777 11.211 24.2412C11.3875 23.6773 11.5271 23.1017 11.6359 22.5208C11.6946 22.2082 11.7472 21.8941 11.7915 21.5791L11.7923 21.5755C11.8008 21.5069 11.8096 21.4387 11.8176 21.37C11.837 21.2047 11.8556 21.0392 11.8718 20.8732C11.9387 20.194 11.9833 19.5121 12.0053 18.8296C12.0499 17.4433 12.0195 16.0525 11.9046 14.6698Z" fill="#CDEAE2" />
		<path d="M14.7074 18.9162C14.6477 20.5206 14.5245 22.2239 14.1452 23.8428L19.0549 20.9855C20.1939 20.3253 21.1044 18.7084 21.1044 17.392V17.0017L13.0547 8.2959C13.581 8.98746 13.8405 9.94493 14.0329 10.7801C14.6423 13.4213 14.8079 16.2137 14.7074 18.9162Z" fill="#CDEAE2" />
		<path d="M19.0549 6.2586L12.5698 2.49492C11.4307 1.83503 9.57236 1.83503 8.43328 2.49492L2.00436 6.2586C0.865389 6.91872 0 8.53587 0 9.85189V17.3922C0 17.8013 0.0261031 18.2393 0.184385 18.6686C0.45652 17.5455 0.610583 16.4046 0.842841 15.2723C1.01856 14.4148 1.18162 13.5294 1.52118 12.7189C1.81108 12.0261 2.21107 11.169 3.04113 11.0068C3.93151 10.8334 4.64828 11.269 5.09514 12.0239L7.69941 14.7925C7.92867 13.4345 8.18359 12.0799 8.57724 10.7602C8.86215 9.80435 9.22159 8.49455 10.0451 7.83809C11.1156 6.98448 12.2544 7.24384 13.0548 8.29617L21.1043 17.0019V9.85189C21.1043 8.53587 20.1938 6.91872 19.0549 6.2586Z" fill="white" />
		<path d="M6.30881 15.7023C6.54584 16.67 6.76044 17.6468 7.01513 18.6117C7.18186 17.8561 7.31637 17.0923 7.44278 16.3306C7.52775 15.8187 7.61094 15.3055 7.69758 14.7926L5.09131 12.0239C5.73921 13.1189 6.00946 14.4806 6.30881 15.7023Z" fill="#CDEAE2" />
		<path d="M32.626 20.664C32.136 20.79 31.499 20.916 30.715 21.042C29.931 21.182 29.07 21.252 28.132 21.252C27.25 21.252 26.508 21.126 25.906 20.874C25.318 20.622 24.842 20.272 24.478 19.824C24.128 19.376 23.876 18.844 23.722 18.228C23.568 17.598 23.491 16.912 23.491 16.17V10.017H26.032V15.771C26.032 16.947 26.2 17.787 26.536 18.291C26.886 18.795 27.488 19.047 28.342 19.047C28.65 19.047 28.972 19.033 29.308 19.005C29.658 18.977 29.917 18.942 30.085 18.9V10.017H32.626V20.664ZM39.6822 21.21C38.9262 21.196 38.2962 21.112 37.7922 20.958C37.3022 20.804 36.9102 20.587 36.6162 20.307C36.3222 20.013 36.1122 19.656 35.9862 19.236C35.8742 18.802 35.8182 18.312 35.8182 17.766V5.124L38.3592 4.704V17.283C38.3592 17.591 38.3802 17.85 38.4222 18.06C38.4782 18.27 38.5692 18.452 38.6952 18.606C38.8212 18.746 38.9892 18.858 39.1992 18.942C39.4232 19.012 39.7032 19.068 40.0392 19.11L39.6822 21.21ZM41.9685 7.119L44.5095 6.699V10.017H48.4155V12.138H44.5095V16.611C44.5095 17.493 44.6495 18.123 44.9295 18.501C45.2095 18.879 45.6855 19.068 46.3575 19.068C46.8195 19.068 47.2255 19.019 47.5755 18.921C47.9395 18.823 48.2265 18.732 48.4365 18.648L48.8565 20.664C48.5625 20.79 48.1775 20.916 47.7015 21.042C47.2255 21.182 46.6655 21.252 46.0215 21.252C45.2375 21.252 44.5795 21.147 44.0475 20.937C43.5295 20.727 43.1165 20.426 42.8085 20.034C42.5005 19.628 42.2835 19.145 42.1575 18.585C42.0315 18.011 41.9685 17.36 41.9685 16.632V7.119ZM53.4339 21H50.8929V10.017H53.4339V21ZM53.7069 6.804C53.7069 7.28 53.5529 7.658 53.2449 7.938C52.9369 8.218 52.5729 8.358 52.1529 8.358C51.7189 8.358 51.3479 8.218 51.0399 7.938C50.7319 7.658 50.5779 7.28 50.5779 6.804C50.5779 6.314 50.7319 5.929 51.0399 5.649C51.3479 5.369 51.7189 5.229 52.1529 5.229C52.5729 5.229 52.9369 5.369 53.2449 5.649C53.5529 5.929 53.7069 6.314 53.7069 6.804ZM59.2166 14.301C59.5386 13.965 59.8816 13.608 60.2456 13.23C60.6096 12.838 60.9666 12.453 61.3166 12.075C61.6666 11.683 61.9956 11.312 62.3036 10.962C62.6256 10.598 62.8986 10.283 63.1226 10.017H66.1256C65.4256 10.801 64.6836 11.613 63.8996 12.453C63.1296 13.293 62.3526 14.112 61.5686 14.91C61.9886 15.26 62.4296 15.687 62.8916 16.191C63.3536 16.681 63.8016 17.206 64.2356 17.766C64.6696 18.326 65.0756 18.886 65.4536 19.446C65.8316 20.006 66.1466 20.524 66.3986 21H63.4586C63.2066 20.566 62.9126 20.111 62.5766 19.635C62.2546 19.159 61.9046 18.697 61.5266 18.249C61.1486 17.801 60.7636 17.381 60.3716 16.989C59.9796 16.583 59.5946 16.24 59.2166 15.96V21H56.6756V5.124L59.2166 4.704V14.301ZM70.804 21H68.263V10.017H70.804V21ZM71.077 6.804C71.077 7.28 70.923 7.658 70.615 7.938C70.307 8.218 69.943 8.358 69.523 8.358C69.089 8.358 68.718 8.218 68.41 7.938C68.102 7.658 67.948 7.28 67.948 6.804C67.948 6.314 68.102 5.929 68.41 5.649C68.718 5.369 69.089 5.229 69.523 5.229C69.943 5.229 70.307 5.369 70.615 5.649C70.923 5.929 71.077 6.314 71.077 6.804ZM73.9197 7.119L76.4607 6.699V10.017H80.3667V12.138H76.4607V16.611C76.4607 17.493 76.6007 18.123 76.8807 18.501C77.1607 18.879 77.6367 19.068 78.3087 19.068C78.7707 19.068 79.1767 19.019 79.5267 18.921C79.8907 18.823 80.1777 18.732 80.3877 18.648L80.8077 20.664C80.5137 20.79 80.1287 20.916 79.6527 21.042C79.1767 21.182 78.6167 21.252 77.9727 21.252C77.1887 21.252 76.5307 21.147 75.9987 20.937C75.4807 20.727 75.0677 20.426 74.7597 20.034C74.4517 19.628 74.2347 19.145 74.1087 18.585C73.9827 18.011 73.9197 17.36 73.9197 16.632V7.119Z" fill="white" />
	</g>
	<defs>
		<clipPath id="clip0_101_207">
			<rect width="82" height="25" fill="white" />
		</clipPath>
	</defs>
</svg>
