<svg id="widget" viewBox="0 0 41 44" fill="none" xmlns="http://www.w3.org/2000/svg">
    <path
        d="M37.5614 29.5704L40.0569 31.0448C40.2108 31.1355 40.3383 31.2641 40.4268 31.4178C40.5152 31.5716 40.5617 31.7453 40.5617 31.922C40.5617 32.0988 40.5152 32.2725 40.4268 32.4262C40.3383 32.58 40.2108 32.7085 40.0569 32.7993L21.8491 43.5597C21.5262 43.7508 21.1566 43.8517 20.7799 43.8517C20.4032 43.8517 20.0336 43.7508 19.7107 43.5597L1.50291 32.7993C1.34896 32.7085 1.22152 32.58 1.13304 32.4262C1.04456 32.2725 0.998047 32.0988 0.998047 31.922C0.998047 31.7453 1.04456 31.5716 1.13304 31.4178C1.22152 31.2641 1.34896 31.1355 1.50291 31.0448L3.99844 29.5704L20.7799 39.4882L37.5614 29.5704ZM37.5614 19.9592L40.0569 21.4336C40.2108 21.5244 40.3383 21.6529 40.4268 21.8067C40.5152 21.9604 40.5617 22.1342 40.5617 22.3109C40.5617 22.4876 40.5152 22.6613 40.4268 22.8151C40.3383 22.9688 40.2108 23.0974 40.0569 23.1882L20.7799 34.5804L1.50291 23.1882C1.34896 23.0974 1.22152 22.9688 1.13304 22.8151C1.04456 22.6613 0.998047 22.4876 0.998047 22.3109C0.998047 22.1342 1.04456 21.9604 1.13304 21.8067C1.22152 21.6529 1.34896 21.5244 1.50291 21.4336L3.99844 19.9592L20.7799 29.8771L37.5614 19.9592ZM21.847 1.16435L40.0569 11.9247C40.2108 12.0155 40.3383 12.144 40.4268 12.2978C40.5152 12.4516 40.5617 12.6253 40.5617 12.802C40.5617 12.9787 40.5152 13.1525 40.4268 13.3062C40.3383 13.46 40.2108 13.5885 40.0569 13.6793L20.7799 25.0715L1.50291 13.6793C1.34896 13.5885 1.22152 13.46 1.13304 13.3062C1.04456 13.1525 0.998047 12.9787 0.998047 12.802C0.998047 12.6253 1.04456 12.4516 1.13304 12.2978C1.22152 12.144 1.34896 12.0155 1.50291 11.9247L19.7107 1.16435C20.0336 0.973265 20.4032 0.872314 20.7799 0.872314C21.1566 0.872314 21.5262 0.973265 21.8491 1.16435H21.847ZM20.7799 5.30123L8.08844 12.802L20.7799 20.3028L33.4714 12.802L20.7799 5.30123Z"
        fill="#297A82" />
</svg>