<svg viewBox="0 0 15 15" id="check" xmlns="http://www.w3.org/2000/svg">
    <g id="check-mark 1">
        <g id="7-Check">
            <path id="Vector"
                d="M2.29108 6.93791C2.0322 6.93862 1.77881 7.01151 1.56024 7.14815C1.34166 7.28479 1.16683 7.47959 1.05597 7.71001C0.945105 7.94044 0.902741 8.19707 0.933779 8.45022C0.964817 8.70336 1.06799 8.94268 1.23135 9.14049L4.71395 13.3425C4.83812 13.4944 4.99729 13.6149 5.17823 13.694C5.35918 13.7731 5.55667 13.8085 5.75432 13.7974C6.17703 13.775 6.55866 13.5523 6.80198 13.1861L14.0362 1.71054C14.0374 1.70864 14.0386 1.70673 14.0399 1.70486C14.1078 1.6022 14.0858 1.39877 13.9457 1.27097C13.9072 1.23588 13.8618 1.20891 13.8123 1.19174C13.7629 1.17457 13.7104 1.16756 13.658 1.17113C13.6057 1.17471 13.5547 1.1888 13.5081 1.21253C13.4615 1.23626 13.4204 1.26914 13.3872 1.30913C13.3846 1.31227 13.3819 1.31537 13.3791 1.31842L6.08331 9.43765C6.05555 9.46855 6.02183 9.49371 5.98411 9.51166C5.9464 9.52961 5.90544 9.54001 5.86361 9.54223C5.82178 9.54446 5.77992 9.53848 5.74046 9.52464C5.701 9.5108 5.66472 9.48937 5.63374 9.46161L3.21239 7.2913C2.96091 7.06424 2.63223 6.93816 2.29108 6.93791V6.93791Z"
            />
        </g>
    </g>
</svg>
 