<svg width="0" height="0" fill="none" style="visibility: hidden; position: absolute;"
    aria-hidden="true">
    <symbol id="app-style-design" viewBox="0 0 52 52" fill="none" xmlns="http://www.w3.org/2000/svg">
        <path
            d="M18 2H6C3.79086 2 2 3.79086 2 6V18C2 20.2091 3.79086 22 6 22H18C20.2091 22 22 20.2091 22 18V6C22 3.79086 20.2091 2 18 2Z"
            stroke="#297A82" stroke-width="4" />
        <path
            d="M18 30H6C3.79086 30 2 31.7909 2 34V46C2 48.2091 3.79086 50 6 50H18C20.2091 50 22 48.2091 22 46V34C22 31.7909 20.2091 30 18 30Z"
            stroke="#297A82" stroke-width="4" />
        <path
            d="M46 2H34C31.7909 2 30 3.79086 30 6V18C30 20.2091 31.7909 22 34 22H46C48.2091 22 50 20.2091 50 18V6C50 3.79086 48.2091 2 46 2Z"
            stroke="#297A82" stroke-width="4" />
        <path
            d="M46 30H34C31.7909 30 30 31.7909 30 34V46C30 48.2091 31.7909 50 34 50H46C48.2091 50 50 48.2091 50 46V34C50 31.7909 48.2091 30 46 30Z"
            stroke="#297A82" stroke-width="4" />
    </symbol>
    <symbol id="dark-light" viewBox="0 0 37 37" fill="none" xmlns="http://www.w3.org/2000/svg">
        <path d="M6.5505 25.1646L4.19043 26.5272" stroke="#297A82" stroke-width="3"
            stroke-miterlimit="13.33" stroke-linecap="square" />
        <path d="M11.5384 6.55123L10.1758 4.19116" stroke="#297A82" stroke-width="3"
            stroke-miterlimit="13.33" stroke-linecap="square" />
        <path d="M11.5384 30.152L10.1758 32.5121" stroke="#297A82" stroke-width="3"
            stroke-miterlimit="13.33" stroke-linecap="square" />
        <path d="M6.5505 11.5384L4.19043 10.1758" stroke="#297A82" stroke-width="3"
            stroke-miterlimit="13.33" stroke-linecap="square" />
        <path d="M4.72525 18.3516H2" stroke="#297A82" stroke-width="3" stroke-miterlimit="13.33"
            stroke-linecap="square" />
        <path d="M18.3516 34.7027V31.9775" stroke="#297A82" stroke-width="3"
            stroke-miterlimit="13.33" stroke-linecap="square" />
        <path d="M18.3516 4.72525V2" stroke="#297A82" stroke-width="3" stroke-miterlimit="13.33"
            stroke-linecap="square" />
        <path
            d="M22.4407 25.434C21.1978 26.151 19.7881 26.5282 18.3532 26.5278C16.9183 26.5274 15.5088 26.1494 14.2662 25.4317C13.0237 24.7141 11.9919 23.682 11.2746 22.4393C10.5573 21.1966 10.1797 19.787 10.1797 18.3521C10.1797 16.9172 10.5573 15.5076 11.2746 14.2648C11.9919 13.0221 13.0237 11.9901 14.2662 11.2724C15.5088 10.5547 16.9183 10.1767 18.3532 10.1763C19.7881 10.1759 21.1978 10.5531 22.4407 11.2702"
            stroke="#297A82" stroke-width="3" stroke-miterlimit="13.33" />
        <path
            d="M34.7031 18.3513C34.7031 19.9683 34.2235 21.5491 33.3252 22.8935C32.4268 24.238 31.1499 25.286 29.656 25.9048C28.1621 26.5236 26.5182 26.6855 24.9323 26.37C23.3463 26.0545 21.8895 25.2759 20.7461 24.1325C19.6027 22.9891 18.8241 21.5323 18.5086 19.9464C18.1932 18.3604 18.3551 16.7165 18.9739 15.2226C19.5927 13.7287 20.6406 12.4518 21.9851 11.5534C23.3296 10.655 24.9103 10.1755 26.5273 10.1755C28.6956 10.1755 30.7752 11.0369 32.3084 12.5702C33.8417 14.1035 34.7031 16.183 34.7031 18.3513Z"
            stroke="#297A82" stroke-width="3" stroke-miterlimit="13.33" stroke-linecap="square" />
    </symbol>
    <symbol id="full-app" viewBox="0 0 46 48" fill="none" xmlns="http://www.w3.org/2000/svg">
        <rect x="13" y="14" width="20" height="20" rx="4" stroke="#297A82" stroke-width="3" />
        <path
            d="M24 6C24 3.79086 25.7909 2 28 2H40C42.2091 2 44 3.79086 44 6V18C44 20.2091 42.2091 22 40 22H34C33.4477 22 33 21.5523 33 21V21V17.9324C33 17.645 32.9689 17.3582 32.9117 17.0765C32.7475 16.2674 32.6227 15.6509 32 15C31.0173 13.9728 30 14 28.5 14H25V14C24.4477 14 24 13.5523 24 13V6Z"
            stroke="#297A82" stroke-width="3" />
        <path
            d="M2 30C2 27.7909 3.79086 26 6 26H12.5C12.7761 26 13 26.2239 13 26.5V26.5V29V29.8769C13 31.7124 14.2492 33.3123 16.0299 33.7575L16.5223 33.8806C16.8396 33.9599 17.1654 34 17.4924 34H21.5V34C21.7761 34 22 34.2239 22 34.5V42C22 44.2091 20.2091 46 18 46H6C3.79086 46 2 44.2091 2 42V30Z"
            stroke="#297A82" stroke-width="3" />
    </symbol>
    <symbol id="loader" viewBox="0 0 37 37" fill="none" xmlns="http://www.w3.org/2000/svg">
        <path
            d="M18.3515 34.703C27.3822 34.703 34.703 27.3822 34.703 18.3515C34.703 9.32082 27.3822 2 18.3515 2C9.32082 2 2 9.32082 2 18.3515C2 27.3822 9.32082 34.703 18.3515 34.703Z"
            stroke="#297A82" stroke-width="4" stroke-linejoin="round" stroke-dasharray="4.67 4.67" />
    </symbol>
    <symbol id="pages" viewBox="0 0 21 18" fill="none" xmlns="http://www.w3.org/2000/svg">
        <path
            d="M0.50471 7.06398L9.50471 12.264C9.65673 12.3517 9.82917 12.3979 10.0047 12.3979C10.1802 12.3979 10.3527 12.3517 10.5047 12.264L19.5047 7.06398C19.6563 6.97607 19.782 6.8499 19.8695 6.69809C19.9569 6.54628 20.0029 6.37416 20.0029 6.19897C20.0029 6.02379 19.9569 5.85167 19.8695 5.69986C19.782 5.54805 19.6563 5.42188 19.5047 5.33397L10.5047 0.133975C10.3527 0.0462065 10.1802 0 10.0047 0C9.82917 0 9.65673 0.0462065 9.50471 0.133975L0.50471 5.33397C0.353171 5.42188 0.227385 5.54805 0.139945 5.69986C0.0525059 5.85167 0.00648221 6.02379 0.00648221 6.19897C0.00648221 6.37416 0.0525059 6.54628 0.139945 6.69809C0.227385 6.8499 0.353171 6.97607 0.50471 7.06398ZM10.0047 2.15397L17.0047 6.15397L10.0047 10.204L3.00471 6.19397L10.0047 2.15397ZM18.5047 9.94397L10.0047 14.854L1.50471 9.94397C1.39117 9.87744 1.26562 9.83397 1.13525 9.81606C1.00488 9.79815 0.872255 9.80614 0.74498 9.83959C0.617706 9.87303 0.498284 9.93127 0.393561 10.011C0.288838 10.0906 0.200874 10.1902 0.13471 10.304C0.0685914 10.4181 0.0257052 10.5442 0.00852188 10.675C-0.00866144 10.8058 0.000197522 10.9386 0.0345887 11.066C0.0689798 11.1933 0.128224 11.3126 0.208908 11.4169C0.289592 11.5213 0.390123 11.6086 0.50471 11.674L9.50471 16.874C9.65673 16.9617 9.82917 17.0079 10.0047 17.0079C10.1802 17.0079 10.3527 16.9617 10.5047 16.874L19.5047 11.674C19.6193 11.6086 19.7198 11.5213 19.8005 11.4169C19.8812 11.3126 19.9404 11.1933 19.9748 11.066C20.0092 10.9386 20.0181 10.8058 20.0009 10.675C19.9837 10.5442 19.9408 10.4181 19.8747 10.304C19.8085 10.1902 19.7206 10.0906 19.6159 10.011C19.5111 9.93127 19.3917 9.87303 19.2644 9.83959C19.1372 9.80614 19.0045 9.79815 18.8742 9.81606C18.7438 9.83397 18.6182 9.87744 18.5047 9.94397Z"
            fill="#297A82" />
    </symbol>
    <symbol id="pwa" viewBox="0 0 201 75" fill="none" xmlns="http://www.w3.org/2000/svg">
        <path
            d="M129.721 75L160 0H139.928L119.217 48.4648L104.486 0H89.0545L73.2447 48.4648L62.0905 26.3828L52 57.4219L62.2464 75H81.9989L96.2893 31.5352L109.925 75H129.721Z"
            fill="#297A82" />
        <path
            d="M19.1539 49.2539H31.579C34.9738 49.3013 38.3587 48.8793 41.6368 48L44.8481 38.1602L53.8303 10.6641C53.1373 9.57863 52.3491 8.55641 51.4748 7.60937C46.8738 2.53646 40.1306 0 31.2453 0H0V75H19.1539V49.2539ZM35.6029 17.2539C37.4062 19.056 38.3065 21.4674 38.3038 24.4883C38.3012 27.5091 37.5161 29.9219 35.9484 31.7266C34.2106 33.7109 31.0124 34.7018 26.3538 34.6992H19.1539V14.5508H26.3852C30.7271 14.5508 33.7997 15.4518 35.6029 17.2539ZM147.943 61.5664L153.749 47.0156H170.508L162.555 24.9414L172.503 0L201 75H179.985L175.117 61.5664H147.943Z"
            fill="#297A82" />
    </symbol>
    <symbol id="rtl" viewBox="0 0 23 32" fill="none" xmlns="http://www.w3.org/2000/svg">
        <path
            d="M21.7421 0C21.8335 0.036767 21.9228 0.078431 22.0095 0.1248C22.3458 0.326423 22.4959 0.692073 22.3953 1.04767C22.3491 1.22195 22.2448 1.37654 22.0986 1.48735C21.9524 1.59816 21.7725 1.65898 21.5869 1.66033C20.7067 1.66746 19.8265 1.66357 18.9459 1.66389H17.2536V1.90118C17.2536 8.18982 17.2536 14.4784 17.2536 20.7671C17.2536 20.9755 17.2342 21.1765 17.1108 21.3558C16.8999 21.6624 16.5425 21.8005 16.1801 21.7146C15.8308 21.6319 15.5633 21.3198 15.5329 20.9545C15.5265 20.8793 15.5292 20.8034 15.5292 20.7275C15.5292 14.4555 15.5292 8.18366 15.5292 1.91187V1.67621H10.3748C10.3711 1.75012 10.3644 1.82306 10.3644 1.89567C10.3644 8.18431 10.3628 14.4729 10.3594 20.7616C10.3627 20.9491 10.3236 21.1351 10.2451 21.3065C10.0706 21.6559 9.65296 21.8119 9.26517 21.7136C9.08339 21.6664 8.92278 21.5622 8.80829 21.4174C8.6938 21.2726 8.63182 21.0951 8.63199 20.9126C8.62831 19.3946 8.63031 17.8766 8.62998 16.3586V13.3925C8.55543 13.3886 8.49157 13.3834 8.42939 13.3828C7.76077 13.375 7.09215 13.3961 6.42352 13.3559C4.68912 13.2512 3.20745 12.5808 1.99456 11.3785C0.970569 10.3633 0.314646 9.1503 0.0889864 7.74216C-0.19217 5.98004 0.193293 4.35602 1.24002 2.89148C2.27405 1.4425 3.68886 0.529343 5.46271 0.146518C5.78098 0.077797 6.1086 0.049271 6.43222 0H21.7421ZM8.62196 1.67621C8.57281 1.67135 8.53537 1.66454 8.49759 1.66454C7.95735 1.66454 7.4161 1.64412 6.87752 1.67135C6.44626 1.69339 6.00597 1.72743 5.59109 1.83343C2.35696 2.66813 0.76931 6.18556 2.34827 9.04236C3.19073 10.5659 4.52631 11.4644 6.3025 11.6622C7.05604 11.7458 7.82529 11.6946 8.58752 11.7017C8.59655 11.7017 8.60558 11.6913 8.62096 11.6813L8.62196 1.67621Z"
            fill="#297A82" />
        <path
            d="M3.86049 26.7512H19.7504C20.2612 26.7512 20.6159 27.0235 20.6904 27.4712C20.7083 27.5862 20.7013 27.7036 20.6698 27.8158C20.6383 27.9281 20.5831 28.0327 20.5076 28.1232C20.4321 28.2136 20.3381 28.2878 20.2314 28.3411C20.1248 28.3944 20.0078 28.4255 19.8881 28.4326C19.8045 28.4368 19.7209 28.4362 19.6374 28.4362H3.81602C3.8762 28.501 3.9123 28.5415 3.95175 28.5794C4.5485 29.1545 5.13589 29.739 5.746 30.3004C6.13915 30.6622 6.11375 31.2106 5.8005 31.5157C5.44446 31.8628 4.90621 31.8525 4.52075 31.481C3.39836 30.3992 2.27708 29.3166 1.15691 28.2332C0.751051 27.8407 0.747711 27.3525 1.15156 26.96C2.28064 25.8619 3.4114 24.7656 4.54382 23.6711C4.91156 23.3145 5.44646 23.3083 5.79816 23.6487C6.14985 23.9891 6.14016 24.5067 5.77108 24.8649C5.17199 25.4454 4.57023 26.0237 3.9658 26.5998C3.92635 26.6377 3.88289 26.6715 3.8411 26.7068L3.86049 26.7512Z"
            fill="#297A82" />
    </symbol>
</svg> 