<svg width="250" height="232" viewBox="0 0 250 232" fill="none" xmlns="http://www.w3.org/2000/svg">
<path d="M24.5953 136.854C24.5953 136.854 25.3706 136.676 25.6691 136.199C26.743 135.544 28.2935 135.188 29.6659 134.056C30.7397 133.401 31.515 133.223 32.5888 132.568C33.6626 131.913 34.7364 131.258 36.1088 130.127C36.8841 129.949 37.4812 128.995 37.7797 128.518C38.0783 128.042 39.1521 127.387 39.4506 126.91C39.7492 126.433 40.3463 125.48 41.4201 124.825C41.7187 124.348 42.0172 123.872 42.0172 123.872C42.3158 123.395 42.6143 122.918 42.9129 122.441C45.0027 119.104 46.6158 115.469 47.0973 110.461C48.0556 105.751 47.7618 100.922 46.9913 95.7933C46.7554 92.9908 46.5194 90.1882 45.9849 87.8624C45.7489 85.0599 45.513 82.2573 45.277 79.4548C44.8051 73.8497 45.407 67.5898 48.2143 62.0473C49.2303 59.3651 51.4983 56.8034 53.7663 54.2416C56.2125 52.4551 58.9573 50.1919 62.3569 49.0024C68.6794 46.3251 75.8351 45.4968 82.6921 45.1453C90.0259 45.0923 97.5378 45.8145 104.751 47.0135C112.441 48.5111 120.131 50.0086 127.523 51.9829C143.081 55.7532 158.698 61.5508 174.194 68.6004C181.941 72.1252 189.092 76.6035 195.945 81.5585C199.758 83.9469 202.797 86.5134 206.312 89.3785L206.967 90.4524L208.099 91.8247C209.052 92.4218 209.707 93.4956 210.184 93.7942C211.792 95.4651 212.924 96.8375 214.233 98.9851C216.973 102.028 218.639 105.727 220.305 109.425C221.673 113.6 222.087 117.177 222.203 121.232L221.663 124.213C221.543 125.465 220.946 126.418 221.124 127.193L220.826 127.67L220.527 128.147L220.229 128.624L220.286 130.651C219.689 131.604 219.867 132.38 219.27 133.333C218.134 137.267 216.699 141.678 215.086 145.314C211.86 152.585 207.381 159.736 201.295 165.216C195.685 170.994 188.765 174.625 181.311 175.93C173.857 177.235 166.046 176.989 158.356 175.492C150.666 173.994 143.573 171.543 136.779 168.615C123.19 162.76 111.57 154.82 101.978 146.821C97.0327 143.061 92.3858 138.823 87.739 134.586C85.6539 132.616 83.2703 131.123 81.1853 129.154C79.7551 128.258 78.8017 127.661 77.3715 126.765C76.4181 126.168 74.6894 125.749 73.1388 126.106C73.1388 126.106 72.8403 126.583 72.3635 126.284L72.065 126.761L71.7665 127.237L71.4679 127.714C71.1694 128.191 70.3941 128.369 70.0955 128.846L69.0217 129.501L68.2464 129.679C67.4712 129.857 67.1726 130.334 66.3974 130.512C64.2497 131.822 61.9239 132.356 60.0748 133.189C55.8999 134.557 51.5468 135.149 47.969 135.563C40.8134 136.392 34.7316 136.565 30.6771 136.681C26.6226 136.796 24.5953 136.854 24.5953 136.854ZM24.5953 136.854C24.5953 136.854 26.6226 136.796 30.8553 137.456C34.9098 137.34 40.693 137.644 48.3254 137.114C51.9032 136.7 56.2562 136.107 60.4311 134.74C62.757 134.205 64.6061 133.372 67.2304 132.361C68.0057 132.183 68.3042 131.706 69.0795 131.528L70.1533 130.873L70.4519 130.396C70.7504 129.92 71.5257 129.741 71.8242 129.265L72.1228 128.788L72.4213 128.311C73.1966 128.133 74.4486 128.253 75.8788 129.149C76.8322 129.746 78.2624 130.642 79.2158 131.239C81.5994 132.732 83.6845 134.701 85.7695 136.671C89.9396 140.61 94.5865 144.847 100.009 148.906C110.078 157.203 121.398 165.62 134.987 171.476C141.782 174.403 149.352 177.153 156.743 179.127C164.433 180.625 172.721 181.169 180.95 179.686C189.179 178.203 197.173 173.917 203.558 167.96C209.943 162.004 214.72 154.376 217.768 146.33C220.156 142.516 221.769 138.88 223.204 134.469C223.802 133.516 223.922 132.264 224.042 131.012L224.461 129.283L224.76 128.807L225.058 128.33L224.88 127.555C225.179 127.078 225.299 125.826 225.896 124.872L225.959 121.593C226.142 117.062 225.549 112.709 223.705 108.235C222.338 104.06 220.195 100.064 217.753 96.5437C216.444 94.3961 215.312 93.0237 213.704 91.3528C213.049 90.279 212.095 89.6819 211.142 89.0848L210.01 87.7124L208.879 86.34C205.363 83.4749 202.325 80.9084 198.81 78.0432C191.957 73.0883 184.031 68.7882 176.283 65.2634C161.086 57.7371 145.171 52.4162 129.136 48.3473C121.268 46.0745 113.578 44.5769 105.589 43.5561C97.6004 42.5353 90.0885 41.813 82.7547 41.866C75.4209 41.919 67.9668 43.224 61.3457 46.3781C57.946 47.5675 55.2013 49.8307 52.4566 52.094C49.7118 54.3572 47.9205 57.2175 46.6059 60.3764C43.5001 66.3956 43.3749 72.9541 43.5483 79.0359C43.7842 81.8384 44.4969 84.9395 44.7329 87.742C44.9689 90.5446 45.5034 92.8704 45.7393 95.6729C46.5098 100.801 46.8036 105.631 45.8453 110.34C45.1857 114.573 44.0493 118.507 41.9594 121.844C41.6609 122.321 41.3623 122.798 41.3623 122.798C41.0638 123.275 40.7652 123.751 40.7652 123.751C40.1681 124.705 39.8696 125.181 39.2725 126.135C38.9739 126.612 37.9001 127.266 37.6015 127.743C37.303 128.22 36.2292 128.875 35.9306 129.352C34.8568 130.006 33.9612 131.437 32.8873 132.091C31.8135 132.746 30.7397 133.401 30.4411 133.878C28.5921 134.711 27.2197 135.843 26.4444 136.021C24.8939 136.377 24.5953 136.854 24.5953 136.854Z" fill="white"/>
<path d="M93.0651 81.5141L98.6178 70.1635L95.1253 68.455L96.2643 66.1267C97.7518 66.8544 98.8451 67.1387 99.5441 66.9797C100.251 66.8045 100.861 66.1914 101.376 65.1404L103.898 66.3743L95.83 82.8667L93.0651 81.5141ZM98.8723 84.355C99.7661 82.5279 100.821 81.1904 102.037 80.3427C103.262 79.4787 104.779 78.9986 106.589 78.9024L109.667 78.7549C111.413 78.6673 112.611 77.9606 113.259 76.6347C113.615 75.9071 113.678 75.2062 113.446 74.532C113.215 73.8578 112.744 73.3467 112.032 72.9987C111.111 72.5478 110.253 72.4989 109.459 72.852C108.665 73.205 107.995 73.9394 107.449 75.055L104.563 73.6431C105.441 71.8484 106.659 70.6705 108.216 70.1096C109.789 69.5566 111.456 69.7112 113.219 70.5733C114.884 71.388 115.984 72.4572 116.519 73.7808C117.078 75.0962 117.001 76.4815 116.289 77.9367C115.799 78.9392 115.053 79.7466 114.052 80.3591C113.051 80.9715 111.899 81.3196 110.596 81.4034L107.555 81.5989C106.396 81.6733 105.536 81.8338 104.975 82.0801C104.429 82.3344 103.902 82.7979 103.393 83.4704L111.566 87.4688L110.344 89.9669L98.8723 84.355ZM117.192 89.9205L119.008 86.2097L115.37 84.43L116.52 82.0774L120.158 83.8571L121.986 80.1221L124.508 81.356L122.681 85.0911L126.319 86.8708L125.168 89.2233L121.53 87.4436L119.715 91.1544L117.192 89.9205ZM139.06 104.014L139.461 101.536L132.937 98.344L131.226 100.182L128.194 98.6991L142.223 84.5218L144.673 85.7201L142.092 105.498L139.06 104.014ZM134.886 96.2018L139.931 98.6697L141.526 89.0198L134.886 96.2018ZM155.513 97.6956C157.13 98.4866 158.162 99.6731 158.611 101.255C159.067 102.821 158.86 104.493 157.99 106.272C157.136 108.018 155.919 109.196 154.338 109.805C152.765 110.398 151.162 110.296 149.529 109.497C148.786 109.133 148.161 108.627 147.657 107.979C147.16 107.316 146.876 106.626 146.805 105.91L143.566 112.531L140.923 111.238L148.943 94.8425L151.587 96.1358L150.839 97.6638C151.448 97.2801 152.179 97.0967 153.032 97.1134C153.894 97.114 154.721 97.3081 155.513 97.6956ZM150.292 106.954C151.262 107.429 152.217 107.485 153.155 107.123C154.102 106.744 154.832 106.029 155.347 104.978C155.861 103.927 155.973 102.92 155.683 101.957C155.4 100.977 154.774 100.25 153.804 99.7753C152.802 99.2849 151.831 99.2209 150.892 99.5833C149.954 99.9456 149.223 100.66 148.701 101.728C148.179 102.795 148.063 103.81 148.353 104.774C148.643 105.737 149.29 106.464 150.292 106.954ZM169.138 104.361C170.755 105.152 171.788 106.339 172.236 107.921C172.693 109.486 172.486 111.159 171.616 112.937C170.761 114.683 169.544 115.861 167.963 116.471C166.391 117.064 164.788 116.961 163.155 116.162C162.411 115.798 161.787 115.293 161.282 114.645C160.785 113.981 160.502 113.291 160.431 112.575L157.192 119.197L154.548 117.903L162.569 101.508L165.212 102.801L164.465 104.329C165.073 103.946 165.804 103.762 166.658 103.779C167.519 103.78 168.346 103.974 169.138 104.361ZM163.918 113.62C164.888 114.094 165.842 114.151 166.781 113.788C167.728 113.41 168.458 112.695 168.972 111.644C169.486 110.593 169.598 109.586 169.308 108.622C169.026 107.643 168.4 106.915 167.43 106.441C166.427 105.95 165.457 105.886 164.518 106.249C163.579 106.611 162.849 107.326 162.327 108.393C161.805 109.46 161.689 110.476 161.979 111.439C162.269 112.403 162.915 113.129 163.918 113.62ZM187.23 126.166C185.592 126.648 183.803 126.414 181.863 125.464C179.923 124.515 178.64 123.246 178.014 121.658C177.396 120.053 177.562 118.281 178.511 116.34L184.064 104.99L186.853 106.354L181.383 117.535C180.798 118.732 180.662 119.808 180.977 120.763C181.299 121.702 182.002 122.436 183.085 122.966C184.168 123.496 185.179 123.6 186.118 123.278C187.065 122.94 187.832 122.172 188.417 120.976L193.886 109.795L196.676 111.159L191.123 122.51C190.174 124.45 188.876 125.669 187.23 126.166ZM190.908 129.379L199.214 112.401L202.003 113.766L193.698 130.743L190.908 129.379ZM94.6974 116.823L103.003 99.8457L108.751 102.658C111.435 103.971 113.121 105.828 113.81 108.229C114.523 110.621 114.306 112.99 113.16 115.335C112.013 117.679 110.272 119.312 107.937 120.234C105.627 121.148 103.13 120.948 100.445 119.635L94.6974 116.823ZM98.7086 115.689L101.425 117.018C103.365 117.968 105.121 118.105 106.693 117.431C108.282 116.766 109.483 115.6 110.298 113.935C111.112 112.269 111.295 110.605 110.846 108.943C110.413 107.288 109.226 105.986 107.286 105.037L104.57 103.708L98.7086 115.689ZM123.996 123.431C123.854 123.722 123.593 124.196 123.212 124.851L114.82 120.746C114.417 121.651 114.372 122.48 114.685 123.234C115.005 123.972 115.65 124.578 116.62 125.053C117.865 125.662 118.916 125.645 119.772 125.002L122.44 126.307C121.748 127.271 120.75 127.855 119.448 128.059C118.17 128.256 116.852 128.022 115.493 127.357C113.715 126.487 112.569 125.265 112.056 123.692C111.544 122.119 111.734 120.418 112.628 118.591C113.514 116.78 114.727 115.59 116.268 115.022C117.832 114.444 119.48 114.579 121.21 115.425C122.827 116.216 123.883 117.354 124.379 118.839C124.899 120.316 124.772 121.847 123.996 123.431ZM115.805 118.733L121.674 121.604C122.085 120.723 122.155 119.925 121.883 119.211C121.627 118.505 121.047 117.93 120.141 117.488C119.22 117.037 118.369 116.931 117.591 117.172C116.812 117.412 116.217 117.932 115.805 118.733ZM126.586 132.783C125.163 132.087 124.185 131.158 123.651 129.995C123.118 128.833 123.108 127.726 123.622 126.675L126.266 127.968C126.029 128.453 126.045 128.952 126.315 129.465C126.601 129.986 127.084 130.412 127.763 130.744C128.264 130.99 128.72 131.062 129.13 130.962C129.539 130.862 129.843 130.61 130.041 130.205C130.357 129.559 130.268 129.024 129.773 128.602L127.254 126.378C125.843 125.126 125.536 123.684 126.335 122.051C126.794 121.113 127.582 120.526 128.699 120.291C129.824 120.04 131.025 120.227 132.302 120.852C133.741 121.556 134.682 122.417 135.126 123.435C135.586 124.462 135.559 125.501 135.044 126.552L132.449 125.282C132.679 124.813 132.679 124.362 132.45 123.93C132.245 123.489 131.835 123.118 131.22 122.817C130.751 122.588 130.308 122.511 129.89 122.587C129.48 122.647 129.192 122.847 129.026 123.186C128.725 123.801 128.851 124.363 129.403 124.874L131.715 126.967C132.381 127.573 132.821 128.269 133.038 129.056C133.262 129.827 133.2 130.568 132.852 131.28C132.314 132.379 131.483 133.075 130.358 133.366C129.25 133.666 127.992 133.471 126.586 132.783ZM142.469 123.481C141.915 123.671 141.355 123.627 140.789 123.35C140.223 123.074 139.845 122.658 139.656 122.104C139.473 121.534 139.517 120.975 139.786 120.425C140.055 119.875 140.466 119.505 141.02 119.315C141.582 119.109 142.146 119.144 142.711 119.421C143.277 119.698 143.651 120.122 143.833 120.692C144.023 121.245 143.984 121.797 143.715 122.347C143.446 122.897 143.031 123.275 142.469 123.481ZM133.132 135.625L138.66 124.323L141.304 125.616L135.775 136.918L133.132 135.625ZM152.291 130.991L154.935 132.284L149.643 143.101C148.536 145.365 147.062 146.658 145.221 146.98C144.008 147.208 142.552 146.906 140.854 146.076C139.205 145.269 138.045 144.281 137.375 143.111C136.607 141.774 136.511 140.454 137.087 139.153L139.852 140.506C139.47 141.902 140.152 143.027 141.898 143.881C143.014 144.427 143.973 144.555 144.775 144.267C145.586 144.002 146.296 143.247 146.905 142.002L147.51 140.765C146.918 141.157 146.191 141.352 145.33 141.352C144.492 141.343 143.718 141.164 143.006 140.816C141.293 139.978 140.207 138.756 139.751 137.15C139.318 135.535 139.521 133.871 140.359 132.157C141.19 130.46 142.399 129.298 143.988 128.672C145.592 128.055 147.227 128.153 148.893 128.968C149.653 129.34 150.269 129.841 150.741 130.473C151.214 131.105 151.481 131.787 151.544 132.519L152.291 130.991ZM144.545 138.654C145.58 139.16 146.563 139.22 147.493 138.833C148.432 138.431 149.15 137.72 149.648 136.701C150.147 135.683 150.263 134.688 149.997 133.716C149.739 132.728 149.092 131.981 148.057 131.475C147.071 130.992 146.105 130.94 145.158 131.319C144.235 131.689 143.517 132.4 143.003 133.45C142.489 134.501 142.365 135.513 142.631 136.485C142.921 137.448 143.559 138.171 144.545 138.654ZM152.069 144.889L157.598 133.587L160.242 134.88L159.47 136.457C160.807 135.568 162.341 135.546 164.071 136.393C166.819 137.737 167.462 139.905 165.999 142.896L162.522 150.003L159.879 148.71L162.762 142.816C163.363 141.587 163.608 140.615 163.497 139.899C163.386 139.184 162.878 138.605 161.973 138.162C161.116 137.743 160.318 137.693 159.581 138.013C158.851 138.318 158.241 138.971 157.75 139.973L154.713 146.182L152.069 144.889Z" fill="white"/>
</svg>
